<svg width="448" height="512" xmlns="http://www.w3.org/2000/svg" class="svg-inline--fa fa-bell fa-w-14">

 <g>
  <title>background</title>
  <rect fill="none" id="canvas_background" height="602" width="802" y="-1" x="-1"/>
 </g>
 <g>
  <title>Layer 1</title>
  <path id="svg_1" d="m439.39,362.29c-19.32,-20.76 -55.47,-51.99 -55.47,-154.29c0,-77.7 -54.48,-139.9 -127.94,-155.16l0,-20.84c0,-17.67 -14.32,-32 -31.98,-32s-31.98,14.33 -31.98,32l0,20.84c-73.46,15.26 -127.94,77.46 -127.94,155.16c0,102.3 -36.15,133.53 -55.47,154.29c-6,6.45 -8.66,14.16 -8.61,21.71c0.11,16.4 12.98,32 32.1,32l383.8,0c19.12,0 32,-15.6 32.1,-32c0.05,-7.55 -2.61,-15.27 -8.61,-21.71zm-371.86,5.71c21.22,-27.97 44.42,-74.33 44.53,-159.42c0,-0.2 -0.06,-0.38 -0.06,-0.58c0,-61.86 50.14,-112 112,-112s112,50.14 112,112c0,0.2 -0.06,0.38 -0.06,0.58c0.11,85.1 23.31,131.46 44.53,159.42l-312.94,0zm156.47,144c35.32,0 63.97,-28.65 63.97,-64l-127.94,0c0,35.35 28.65,64 63.97,64z" fill="#0099ff"/>
 </g>
</svg>