<svg width="384" height="512" xmlns="http://www.w3.org/2000/svg" class="svg-inline--fa fa-file-image fa-w-12">

 <g>
  <title>background</title>
  <rect fill="none" id="canvas_background" height="602" width="802" y="-1" x="-1"/>
 </g>
 <g>
  <title>Layer 1</title>
  <path id="svg_1" d="m369.9,97.9l-83.9,-83.9c-9,-9 -21.2,-14.1 -33.9,-14.1l-204.1,0c-26.5,0.1 -48,21.6 -48,48.1l0,416c0,26.5 21.5,48 48,48l288,0c26.5,0 48,-21.5 48,-48l0,-332.1c0,-12.7 -5.1,-25 -14.1,-34zm-37.8,30.1l-76.1,0l0,-76.1l76.1,76.1zm-284.1,336l0,-416l160,0l0,104c0,13.3 10.7,24 24,24l104,0l0,288l-288,0zm32,-48l224,0l0,-128l-23.5,-23.5c-4.7,-4.7 -12.3,-4.7 -17,0l-87.5,87.5l-39.5,-39.5c-4.7,-4.7 -12.3,-4.7 -17,0l-39.5,39.5l0,64zm48,-240c-26.5,0 -48,21.5 -48,48s21.5,48 48,48s48,-21.5 48,-48s-21.5,-48 -48,-48z" fill="#0099ff"/>
 </g>
</svg>