<svg width="512" height="512" xmlns="http://www.w3.org/2000/svg" class="svg-inline--fa fa-heart fa-w-16">

 <g>
  <title>background</title>
  <rect fill="none" id="canvas_background" height="602" width="802" y="-1" x="-1"/>
 </g>
 <g>
  <title>Layer 1</title>
  <path id="svg_1" d="m458.4,64.3c-57.8,-48.6 -147.1,-41.3 -202.4,15c-55.3,-56.3 -144.6,-63.7 -202.4,-15c-75.2,63.3 -64.2,166.5 -10.6,221.2l175.4,178.7c10,10.2 23.4,15.9 37.6,15.9c14.3,0 27.6,-5.6 37.6,-15.8l175.4,-178.7c53.5,-54.7 64.7,-157.9 -10.6,-221.3zm-23.6,187.5l-175.4,178.7c-2.4,2.4 -4.4,2.4 -6.8,0l-175.4,-178.7c-36.5,-37.2 -43.9,-107.6 7.3,-150.7c38.9,-32.7 98.9,-27.8 136.5,10.5l35,35.7l35,-35.7c37.8,-38.5 97.8,-43.2 136.5,-10.6c51.1,43.1 43.5,113.9 7.3,150.8z" fill="#6e767d"/>
 </g>
</svg>