<svg id="Capa_1" data-name="Capa 1" xmlns="http://www.w3.org/2000/svg" viewBox="0 0 649.99 550.01"><defs><style>.cls-1{fill:#03a9f4;}.cls-2{fill:#012a3d;}</style></defs><title>Mesa de trabajo 1</title><path class="cls-1" d="M595,116.25a218.66,218.66,0,0,1-60.48,16.58,104.37,104.37,0,0,0,46.17-58,209.76,209.76,0,0,1-66.56,25.41A105,105,0,0,0,332.56,172,107.87,107.87,0,0,0,335,195.93c-87.27-4.25-164.48-46.08-216.36-109.79A105,105,0,0,0,150.9,226.43a103.66,103.66,0,0,1-47.42-12.93v1.15a105.45,105.45,0,0,0,84.09,103.14,104.54,104.54,0,0,1-27.52,3.46,92.67,92.67,0,0,1-19.87-1.8c13.6,41.57,52.19,72.13,98.08,73.12a210.89,210.89,0,0,1-130.14,44.77A195.79,195.79,0,0,1,83,435.9,295.44,295.44,0,0,0,244,483c193.15,0,298.75-160,298.75-298.69,0-4.64-.16-9.12-.38-13.57A209.49,209.49,0,0,0,595,116.25Z"/><path class="cls-1" d="M183.59,145.57a295.23,295.23,0,0,0,119,47l-.05.16L218.62,482A294.51,294.51,0,0,1,83,435.91a197.72,197.72,0,0,0,25.12,1.44,210.93,210.93,0,0,0,130.14-44.77,104.3,104.3,0,0,1-36.59-7.44l11-11.74a12.19,12.19,0,0,0-.82-17.47l-40.08-35.26a96.29,96.29,0,0,0,15.81-2.88A104.44,104.44,0,0,1,152,303.28c-1.49-1-3-1.95-4.39-3a105.87,105.87,0,0,1-15.91-14q-1.81-1.95-3.53-4a102,102,0,0,1-6.65-8.8l-.37-.56a104.47,104.47,0,0,1-17.67-58.3v-1.15a103.69,103.69,0,0,0,47.42,12.92,105.34,105.34,0,0,1-42.32-57.52l-.21-.74a104.31,104.31,0,0,1-4.09-29,105.61,105.61,0,0,1,14.37-53,301.51,301.51,0,0,0,38.73,39.54l.14.12q11.19,9.49,23.29,17.86C181.73,144.31,182.66,144.94,183.59,145.57Z"/><path class="cls-1" d="M595,116.26a209.57,209.57,0,0,1-50.89,53.25l-43.33-40.66a12.31,12.31,0,0,0-17.27.51l-44.18,47.12a12.19,12.19,0,0,0,.82,17.47l88.19,77.68.79.69c-.07.23-.14.46-.22.69-.56,1.84-1.16,3.68-1.77,5.51-.13.41-.27.83-.41,1.24h0a309.82,309.82,0,0,1-68.3,114l-.51.53A282,282,0,0,1,314.1,475.46l-1.07.23.07-.23L431.62,67.19c.34,0,.68,0,1-.06,1.59-.08,3.2-.12,4.82-.12a105.17,105.17,0,0,1,76.68,33.22A210,210,0,0,0,580.7,74.82a104.36,104.36,0,0,1-46.18,58A218.64,218.64,0,0,0,595,116.26Z"/><path class="cls-2" d="M646.12,266.16l-103-96.65-1.72,1.24c.23,4.45.39,8.93.39,13.57a298.05,298.05,0,0,1-13.44,87.31l-.21.69.78.69,2.25,2-4,3.53-1.41,1.24h0l-86.58,76.16a12.11,12.11,0,0,0-.82,17.47l19.1,20.37.49.53,24.59,26.22a12.21,12.21,0,0,0,17.27.61l146.34-137.2A12.12,12.12,0,0,0,646.12,266.16ZM211.67,176.59l-29.08-31-1.78-1.9-13.32-14.21a12.12,12.12,0,0,0-10.11-3.77c-.29,0-.57.07-.86.12a12.15,12.15,0,0,0-6.3,3.15l-41.85,39.21-.79.74L3.88,266.06a12.12,12.12,0,0,0,0,17.77L150.22,421a12.11,12.11,0,0,0,17.27-.51l33.17-35.38a106.68,106.68,0,0,1-61.48-65.68,92.77,92.77,0,0,0,19.88,1.79,115.64,115.64,0,0,0,11.71-.58L151,303.28l-3.39-3-15.91-14-4.53-4L118.84,275l1.68-1.47.63-.56,89.7-78.91A12.09,12.09,0,0,0,211.67,176.59Zm217-143.09-61.95-18a12.2,12.2,0,0,0-15.13,8.33l-49,168.72.95.16A297.64,297.64,0,0,0,335,195.94,108,108,0,0,1,332.57,172,104.9,104.9,0,0,1,431.62,67.19l0-.06L437,48.63A12.19,12.19,0,0,0,428.69,33.5ZM219.6,482c-.33,0-.66-.05-1-.09l0,.09L213,501.36a12.2,12.2,0,0,0,8.32,15.13l61.95,18a12.16,12.16,0,0,0,15.13-8.32L313,475.69A319.08,319.08,0,0,1,244,483Q231.68,483,219.6,482Z"/></svg>